# xmcd
#
# Track frame offsets:
#	150
#	23887
#	46295
#	71307
#	89550
#	113685
#	131890
#	153400
#	177992
#	199977
#	223492
#	242227
#	259950
#	283687
#	306095
#	331107
#
# Disc length: 4656 seconds
#
# Revision: 1
# Processed by: cddbd v1.5.1PL0 Copyright (c) Steve Scherf et al.
# Submitted via: CDex 1.50Beta5
#
DISCID=f4122e10
DTITLE=20th Century - Precious Love
DYEAR=2000
DGENRE=Pop
TTITLE0=Precious Love
TTITLE1=LOVE SONG
TTITLE2=bird cage
TTITLE3=Take it easy
TTITLE4=Precious Love〜Laid-back Mix〜
TTITLE5=Precious Love〜AKIRA’S CORE FIGHTER REMIX〜
TTITLE6=LOVE SONG〜tramuntana mix〜
TTITLE7=LOVE SONG〜no place to hide mix〜
TTITLE8=bird cage〜SU bossa mix〜
TTITLE9=bird cage〜Sun Set Lounge Mix〜
TTITLE10=Take it easy〜eltorpedo mix〜
TTITLE11=Take it easy〜Groove Da House Remix〜
TTITLE12=Precious Love〜original karaoke〜
TTITLE13=LOVE SONG〜original karaoke〜
TTITLE14=bird cage〜original karaoke〜
TTITLE15=Take it easy〜original karaoke〜
EXTD=
EXTT0=
EXTT1=
EXTT2=
EXTT3=
EXTT4=
EXTT5=
EXTT6=
EXTT7=
EXTT8=
EXTT9=
EXTT10=
EXTT11=
EXTT12=
EXTT13=
EXTT14=
EXTT15=
PLAYORDER=
